<?xml version="1.0" ?><svg style="enable-background:new 0 0 48 48;" version="1.1" viewBox="0 0 48 48" xml:space="preserve" xmlns="http://www.w3.org/2000/svg" xmlns:xlink="http://www.w3.org/1999/xlink"><g id="Padding__x26__Artboard"/><g id="Icons"><g><path d="M24.99695,12.87437c0.24976,0.15662,0.82483,0.6792,0.85168,0.7002    c0.14893,0.11719,0.29834,0.24121,0.44971,0.36719c0.40967,0.34033,0.83301,0.69287,1.27295,0.91309    c0.36328,0.18115,1.1958,1.17188,1.81201,2.02637c0.07471-0.43945,0.12061-0.98828,0.00146-1.41162    c-0.1864-0.6637-0.22211-1.21362-0.22479-1.51984C28.14258,13.52721,25.90601,12.71288,24.99695,12.87437z" style="fill:#546577;"/><path d="M27.07886,26.50711l-0.02911-0.69676c-1.0058,0.80927-2.03217,1.24469-2.99994,1.24469    c-0.0127,0-0.02539,0-0.0376,0h-0.2959c-0.01221,0-0.0249,0-0.03711,0c-0.88452,0-1.82001-0.36987-2.74426-1.05487    l-0.0246,0.46295c0.87463,1.15863,1.82941,1.578,2.83966,1.58704c0.0083,0,0.01611,0,0.02393,0    C25.39911,28.05016,26.74548,26.90494,27.07886,26.50711z" style="fill:#546577;"/><path d="M21.07129,27.53551c0.56396,2.80322,2.02295,4.47363,2.61133,5.05225    c1.16064-1.43799,2.1665-3.47266,2.7832-4.86377c-0.69287,0.52783-1.62891,1.02637-2.69141,1.02637    c-0.01025,0-0.02051,0-0.03027,0C22.79004,28.74156,21.89502,28.33385,21.07129,27.53551z" style="fill:#546577;"/><path d="M32.37793,28.11559l-4.77026-1.29486c-0.45074,1.13538-1.81927,4.36285-3.53784,6.39197v0.68268    h0.61963c0.19336,0,0.3501,0.15674,0.3501,0.3501s-0.15674,0.3501-0.3501,0.3501h-0.61963v1.29639    c0,0.19336-0.15674,0.3501-0.3501,0.3501s-0.3501-0.15674-0.3501-0.3501v-1.29639h-0.66309    c-0.19336,0-0.3501-0.15674-0.3501-0.3501s0.15674-0.3501,0.3501-0.3501h0.66309v-0.63928    c-0.54089-0.47949-2.61884-2.5589-3.11554-6.41956l-4.633,1.25806c-2.60107,0.70947-4.67627,2.41357-5.55127,4.55859    l-1.18506,2.90723c2.49951,0.50439,16.15967,2.97949,30.23047,0.02246l-1.18604-2.90869    C37.05322,30.52574,34.97803,28.82164,32.37793,28.11559z" style="fill:#546577;"/><path d="M20.00537,12.87291c0.42334-0.07373,0.86133-0.1499,1.3042-0.18311    c0.47852-0.03564,0.90674-0.07764,1.29688-0.22998c0.2998-0.11621,0.56787-0.34814,0.85205-0.59326    c0.11426-0.09912,0.22803-0.19727,0.34326-0.28711c0.22461-0.17603,0.64929-0.40472,1.21515-0.55865    c-0.33453-0.01312-0.66809-0.02679-1.00323-0.02679l-0.38281-0.00195c-0.31592-0.00195-0.63232-0.00537-0.94531,0.00781    c-0.44727,0.01953-0.8208,0.06543-1.16504,0.14062c-0.50391,0.10986-0.92578,0.2666-1.29004,0.47998    c-0.42725,0.24805-0.76465,0.58447-0.97705,0.97314c-0.07324,0.1416-0.13965,0.29541-0.18896,0.45557    c-0.00018,0.00055-0.00024,0.00098-0.00024,0.00098c0.2674-0.05548,0.52362-0.10455,0.77173-0.14746L20.00537,12.87291z" style="fill:#546577;"/><path d="M24.11877,12.22636c0.18793,0.0188,0.41949,0.02045,0.75281-0.04047    c1.34174-0.24805,4.33618,1.01886,4.75854,1.20081c0.09821,0.02411,0.4668,0.12073,0.9231,0.32751    c-0.39795-0.44238-0.93066-0.91504-1.6377-1.35449c-2.26172-1.40723-4.18604-0.6167-4.68213-0.22949    C24.19495,12.16039,24.15692,12.19463,24.11877,12.22636z" style="fill:#546577;"/><path d="M21.59326,24.71861c0.01953-0.17773,0.16943-0.3125,0.34814-0.3125" style="fill:#546577;"/><path d="M22.56299,18.92174c0.06787,0,0.13379-0.01416,0.20117-0.05811    c0.1626-0.10498,0.20898-0.32178,0.104-0.48389c-0.08057-0.12402-0.22656-0.17969-0.36475-0.15283l-0.00195-0.01709    c-0.27002-0.04883-0.98828-0.17676-2.04395,0.01562c-0.19043,0.03467-0.31592,0.21729-0.28125,0.40723    c0.03467,0.19043,0.21582,0.31592,0.40723,0.28125c0.93115-0.17041,1.53564-0.06055,1.79395-0.01514    C22.44238,18.91051,22.50342,18.92174,22.56299,18.92174z" style="fill:none;"/><path d="M25.16113,23.68053L24.521,23.88707c-0.37891,0.12305-0.7793,0.12207-1.1582,0l-0.64014-0.20654    c-0.18164-0.05859-0.38086,0.0415-0.44043,0.22559s0.0415,0.38135,0.22559,0.44043l0.63965,0.20654    c0.25977,0.08398,0.52734,0.12598,0.79443,0.12598c0.26758,0,0.53467-0.04199,0.79443-0.12598l0.63965-0.20654    c0.18408-0.05957,0.28516-0.25684,0.22559-0.44043C25.54248,23.72203,25.34473,23.62144,25.16113,23.68053z" style="fill:none;"/><path d="M22.58252,20.97496c-0.31055,0.32959-0.47607,0.84473-0.10693,1.19531    c0.20801,0.19727,0.40527,0.24414,0.60107,0.14941c0,0,0.02441,0.00684,0.07715,0.0415    c0.3501,0.23242,0.5791,0.29346,0.72217,0.29346c0.00555,0,0.0094-0.00122,0.01471-0.0014    c0.00531,0.00018,0.00903,0.0014,0.01459,0.0014c0.14355,0,0.37256-0.06104,0.72266-0.29297    c0.02588-0.01758,0.04492-0.02783,0.05322-0.03369c0.229,0.08594,0.42139,0.03662,0.62451-0.15771    c0.36963-0.35059,0.2041-0.86572-0.10645-1.19531c-0.13281-0.14111-0.35498-0.14746-0.49463-0.01514    c-0.14111,0.13232-0.14746,0.354-0.01514,0.49463c0.04102,0.04395,0.08984,0.11914,0.104,0.17773    c-0.14062-0.02588-0.31787-0.00977-0.55225,0.146c-0.20654,0.13672-0.31348,0.16895-0.3418,0.17529    c-0.00183,0.00006-0.00354,0.00189-0.00537,0.00195c-0.00153,0.00031-0.00287-0.00031-0.00439,0    c-0.00146-0.00049-0.10645-0.0166-0.34912-0.17773c-0.23779-0.15723-0.41553-0.17334-0.56396-0.14209    c0.02148-0.05371,0.06934-0.13037,0.11719-0.18262c0.13086-0.14062,0.12402-0.36133-0.0166-0.49316    C22.93701,20.82799,22.71484,20.83482,22.58252,20.97496z" style="fill:none;"/><path d="M26.26025,16.73766c-0.08057,0.02295-0.16406,0.04736-0.25195,0.06934    c-0.64502,0.1626-1.0415,0.12842-1.04297,0.12842c-0.17236-0.01465-0.33545,0.0957-0.37695,0.26611    c-0.13379,0.55713-0.10059,1.00146,0.09961,1.3208c0.15967,0.25391,0.37305,0.34717,0.47021,0.37744    c0.04297,0.01611,0.08594,0.02197,0.12939,0.02197c0.05957,0,0.12061-0.01123,0.18555-0.02295    c0.2583-0.04541,0.86279-0.15576,1.79395,0.01514c0.19141,0.03467,0.37256-0.09082,0.40723-0.28125    c0.03467-0.18994-0.09082-0.37256-0.28125-0.40723c-0.99658-0.18311-1.69336-0.07764-2.05957-0.01318    c-0.07568-0.05908-0.15625-0.22803-0.11426-0.57764c0.22314-0.01025,0.55176-0.0459,0.95996-0.14893    c0.0957-0.02393,0.18652-0.05029,0.27441-0.0752c0.45898-0.13135,0.71045-0.20459,1.19189,0.15771    c0.15479,0.11621,0.37402,0.08496,0.49023-0.06934s0.08496-0.37402-0.06934-0.49023    C27.30615,16.43687,26.77393,16.58971,26.26025,16.73766z" style="fill:none;"/><path d="M22.56299,18.92174c0.06787,0,0.13379-0.01416,0.20117-0.05811    c0.1626-0.10498,0.20898-0.32178,0.104-0.48389c-0.08057-0.12402-0.22656-0.17969-0.36475-0.15283l-0.00195-0.01709    c-0.27002-0.04883-0.98828-0.17676-2.04395,0.01562c-0.19043,0.03467-0.31592,0.21729-0.28125,0.40723    c0.03467,0.19043,0.21582,0.31592,0.40723,0.28125c0.93115-0.17041,1.53564-0.06055,1.79395-0.01514    C22.44238,18.91051,22.50342,18.92174,22.56299,18.92174z" style="fill:none;"/><path d="M22.58252,20.97496c-0.31055,0.32959-0.47607,0.84473-0.10693,1.19531    c0.20801,0.19727,0.40527,0.24414,0.60107,0.14941c0,0,0.02441,0.00684,0.07715,0.0415    c0.3501,0.23242,0.5791,0.29346,0.72217,0.29346c0.00555,0,0.0094-0.00122,0.01471-0.0014    c0.00531,0.00018,0.00903,0.0014,0.01459,0.0014c0.14355,0,0.37256-0.06104,0.72266-0.29297    c0.02588-0.01758,0.04492-0.02783,0.05322-0.03369c0.229,0.08594,0.42139,0.03662,0.62451-0.15771    c0.36963-0.35059,0.2041-0.86572-0.10645-1.19531c-0.13281-0.14111-0.35498-0.14746-0.49463-0.01514    c-0.14111,0.13232-0.14746,0.354-0.01514,0.49463c0.04102,0.04395,0.08984,0.11914,0.104,0.17773    c-0.14062-0.02588-0.31787-0.00977-0.55225,0.146c-0.20654,0.13672-0.31348,0.16895-0.3418,0.17529    c-0.00183,0.00006-0.00354,0.00189-0.00537,0.00195c-0.00153,0.00031-0.00287-0.00031-0.00439,0    c-0.00146-0.00049-0.10645-0.0166-0.34912-0.17773c-0.23779-0.15723-0.41553-0.17334-0.56396-0.14209    c0.02148-0.05371,0.06934-0.13037,0.11719-0.18262c0.13086-0.14062,0.12402-0.36133-0.0166-0.49316    C22.93701,20.82799,22.71484,20.83482,22.58252,20.97496z" style="fill:none;"/><path d="M26.26025,16.73766c-0.08057,0.02295-0.16406,0.04736-0.25195,0.06934    c-0.64502,0.1626-1.0415,0.12842-1.04297,0.12842c-0.17236-0.01465-0.33545,0.0957-0.37695,0.26611    c-0.13379,0.55713-0.10059,1.00146,0.09961,1.3208c0.15967,0.25391,0.37305,0.34717,0.47021,0.37744    c0.04297,0.01611,0.08594,0.02197,0.12939,0.02197c0.05957,0,0.12061-0.01123,0.18555-0.02295    c0.2583-0.04541,0.86279-0.15576,1.79395,0.01514c0.19141,0.03467,0.37256-0.09082,0.40723-0.28125    c0.03467-0.18994-0.09082-0.37256-0.28125-0.40723c-0.99658-0.18311-1.69336-0.07764-2.05957-0.01318    c-0.07568-0.05908-0.15625-0.22803-0.11426-0.57764c0.22314-0.01025,0.55176-0.0459,0.95996-0.14893    c0.0957-0.02393,0.18652-0.05029,0.27441-0.0752c0.45898-0.13135,0.71045-0.20459,1.19189,0.15771    c0.15479,0.11621,0.37402,0.08496,0.49023-0.06934s0.08496-0.37402-0.06934-0.49023    C27.30615,16.43687,26.77393,16.58971,26.26025,16.73766z" style="fill:none;"/><path d="M25.16113,23.68053L24.521,23.88707c-0.37891,0.12305-0.7793,0.12207-1.1582,0l-0.64014-0.20654    c-0.18164-0.05859-0.38086,0.0415-0.44043,0.22559s0.0415,0.38135,0.22559,0.44043l0.63965,0.20654    c0.25977,0.08398,0.52734,0.12598,0.79443,0.12598c0.26758,0,0.53467-0.04199,0.79443-0.12598l0.63965-0.20654    c0.18408-0.05957,0.28516-0.25684,0.22559-0.44043C25.54248,23.72203,25.34473,23.62144,25.16113,23.68053z" style="fill:none;"/><path d="M18.19385,16.05357c-0.00586,0.21454-0.00726,0.42773-0.00037,0.63379    c0.57806-1.19336,1.84174-2.99487,4.17444-2.93213c0.21198-0.03644,0.41382-0.10156,0.6145-0.1665    c0.33838-0.10938,0.68848-0.22217,1.08838-0.22217c0.00098,0,0.00244,0,0.00342,0l0.37946,0.00031    c-0.88861-0.45099-1.44795-0.28219-1.9386-0.1637c-0.37518,0.0993-0.75885,0.15533-1.15375,0.18488    c-0.4082,0.03027-0.81006,0.10059-1.23535,0.1748l-0.1709,0.0293c-0.38037,0.06592-0.76172,0.13477-1.13623,0.22998    l-0.11133,0.0249c-0.02686,0.00568-0.07074,0.01575-0.11249,0.02557c-0.01172,0.00122-0.02063,0.01105-0.03254,0.01105    c-0.00298,0-0.00609-0.0011-0.00915-0.00116c-0.05548,0.01422-0.11035,0.0304-0.1427,0.04657    c-0.06396,0.11963-0.29492,0.60107-0.23047,1.20166C18.21143,15.42125,18.20215,15.74303,18.19385,16.05357z" style="fill:#546577;"/><path d="M19.90039,16.57408c0.68231-0.93628,1.1557-1.56891,1.51434-2.00342    c-1.33179,0.36292-2.27698,1.68469-2.753,2.55035c0.31934-0.00739,0.67414-0.01911,0.8996-0.05488    C19.64673,16.9495,19.81494,16.69127,19.90039,16.57408z" style="fill:#546577;"/><path d="M18.29775,17.64873c-0.01251,0.02002-0.14626,0.47504-0.21907,0.50671    c-0.12939,0.05469-0.13678-0.21112-0.49219-0.16748c-1.2287,0.14984,0.22253,3.60095,0.98315,3.44653l0.2121,0.02191    c0.16016,0.0166,0.28857,0.14062,0.31055,0.30029c0.09033,0.6543,0.31299,1.69629,0.52588,1.96387    c1.3584,1.71484,2.82129,2.62109,4.09424,2.63428h0.30371c0.00977,0,0.02002,0.00049,0.03027,0.00049    c1.2832,0,2.72656-0.93408,4.07324-2.63428c0.20605-0.26367,0.40137-1.32959,0.47363-2.00244    c0.01476-0.13743,0.11868-0.26296,0.25202-0.30076c0.0703-0.01993,0.132,0.00484,0.20155-0.00216    c0.10164-0.01022,0.19394-0.06914,0.27144-0.132c0.10954-0.08887,0.20231-0.19801,0.28629-0.31077    c0.10356-0.13905,0.19441-0.28748,0.27693-0.43985c0.09106-0.16816,0.1719-0.34188,0.24334-0.51924    c0.07219-0.17923,0.1349-0.36245,0.18553-0.54895c0.04708-0.17344,0.08414-0.35018,0.10349-0.52897    c0.01646-0.15214,0.02105-0.30767-0.00276-0.45931c-0.01894-0.1206-0.05702-0.24271-0.13324-0.33996    c-0.0718-0.09161-0.17405-0.14958-0.28794-0.17093c-0.01268-0.00238-0.02543-0.00432-0.03824-0.00588    c-0.35541-0.04364-0.36279,0.22217-0.49219,0.16748c-0.07281-0.03168-0.1994-0.18115-0.21191-0.20117    c-0.63232-1.01172-1.74902-2.31836-1.98975-2.44531c-0.51172-0.25635-0.96729-0.63477-1.40723-1.00098    c-0.146-0.12158-0.29004-0.2417-0.43359-0.354c-0.02539-0.02002-0.06494-0.05078-0.08008-0.05713    c0,0-1.26367-0.00195-1.26611-0.00195c-0.29004,0-0.57324,0.09131-0.87354,0.18799    c-0.20868,0.06738-0.42139,0.12781-0.63995,0.17114c-0.0141,0.00592-0.02936,0.00793-0.04443,0.01184    c-0.01331,0.00244-0.02539,0.00818-0.03876,0.01038c-0.22266,0.11517-1.03522,1.20697-1.73163,2.15967    c0.30719-0.02332,0.58057,0.05261,0.84784,0.12988c0.08057,0.02295,0.16406,0.04736,0.25195,0.06934    c0.64697,0.16357,1.04053,0.12744,1.04541,0.12842c0.28598,0.00259,0.36279,0.12207,0.38135,0.31396    c0.01904,0.19141-0.11914,0.3623-0.31055,0.38232c-0.02051,0.00244-0.50977,0.0498-1.28711-0.146    c-0.0957-0.02393-0.18652-0.0498-0.27441-0.0752c-0.45752-0.13232-0.8084-0.23615-1.33081,0.06351    C19.82165,17.61428,18.98088,17.77949,18.29775,17.64873z M23.07715,20.95982c0.14062,0.13184,0.14746,0.35254,0.0166,0.49316    c-0.04785,0.05225-0.0957,0.12891-0.11719,0.18262c0.14844-0.03125,0.32617-0.01514,0.56396,0.14209    c0.24268,0.16113,0.34766,0.17725,0.34912,0.17773c0.00153-0.00031,0.00287,0.00031,0.00439,0    c0.00183-0.00006,0.00354-0.00189,0.00537-0.00195c0.02832-0.00635,0.13525-0.03857,0.3418-0.17529    c0.23438-0.15576,0.41162-0.17188,0.55225-0.146c-0.01416-0.05859-0.06299-0.13379-0.104-0.17773    c-0.13232-0.14062-0.12598-0.3623,0.01514-0.49463c0.13965-0.13232,0.36182-0.12598,0.49463,0.01514    c0.31055,0.32959,0.47607,0.84473,0.10645,1.19531c-0.20312,0.19434-0.39551,0.24365-0.62451,0.15771    c-0.0083,0.00586-0.02734,0.01611-0.05322,0.03369c-0.3501,0.23193-0.5791,0.29297-0.72266,0.29297    c-0.00555,0-0.00928-0.00122-0.01459-0.0014c-0.00531,0.00018-0.00916,0.0014-0.01471,0.0014    c-0.14307,0-0.37207-0.06104-0.72217-0.29346c-0.05273-0.03467-0.07666-0.0415-0.07666-0.0415    c-0.19629,0.09473-0.39355,0.04785-0.60156-0.14941c-0.36914-0.35059-0.20361-0.86572,0.10693-1.19531    C22.71484,20.83482,22.93701,20.82799,23.07715,20.95982z M20.5835,18.91393c-0.19141,0.03467-0.37256-0.09082-0.40723-0.28125    c-0.03467-0.18994,0.08936-0.38189,0.28125-0.40723c1.45105-0.1916,2.33008,0.03027,2.41064,0.1543    c0.10498,0.16211,0.05859,0.37891-0.104,0.48389c-0.06738,0.04395-0.1333,0.05811-0.20117,0.05811    c-0.05957,0-0.12061-0.01123-0.18555-0.02295C22.11914,18.85338,21.51465,18.74352,20.5835,18.91393z M25.37598,24.34654    l-0.63965,0.20654c-0.25977,0.08398-0.52686,0.12598-0.79443,0.12598c-0.26709,0-0.53467-0.04199-0.79443-0.12598    l-0.63965-0.20654c-0.18408-0.05908-0.28516-0.25635-0.22559-0.44043s0.25879-0.28418,0.44043-0.22559l0.64014,0.20654    c0.37891,0.12207,0.7793,0.12305,1.1582,0l0.64014-0.20654c0.18359-0.05908,0.38135,0.0415,0.44043,0.22559    C25.66113,24.08971,25.56006,24.28697,25.37598,24.34654z M28.13574,17.49889c-0.11621,0.1543-0.33545,0.18555-0.49023,0.06934    c-0.48145-0.3623-0.73291-0.28906-1.19189-0.15771c-0.08789,0.0249-0.17871,0.05127-0.27441,0.0752    c-0.4082,0.10303-0.73682,0.13867-0.95996,0.14893c-0.04199,0.34961,0.03857,0.51855,0.11426,0.57764    c0.36621-0.06445,1.06299-0.16992,2.05957,0.01318c0.19043,0.03467,0.31592,0.21729,0.28125,0.40723    c-0.03467,0.19043-0.21582,0.31592-0.40723,0.28125c-0.93115-0.1709-1.53564-0.06055-1.79395-0.01514    c-0.06494,0.01172-0.12598,0.02295-0.18555,0.02295c-0.04346,0-0.08643-0.00586-0.12939-0.02197    c-0.09717-0.03027-0.31055-0.12354-0.47021-0.37744c-0.2002-0.31934-0.2334-0.76367-0.09961-1.3208    c0.0415-0.17041,0.20459-0.28076,0.37695-0.26611c0.00146,0,0.39795,0.03418,1.04297-0.12842    c0.08789-0.02197,0.17139-0.04639,0.25195-0.06934c0.51367-0.14795,1.0459-0.30078,1.80615,0.271    C28.2207,17.12486,28.25195,17.34459,28.13574,17.49889z" style="fill:#546577;"/></g></g></svg>